<svg preserveAspectRatio="none" width="100%" height="100%" overflow="visible" style="display: block;" viewBox="0 0 20 20" fill="none" xmlns="http://www.w3.org/2000/svg">
<g id="akar-icons:linkedin-box-fill" clip-path="url(#clip0_0_291)">
<path id="Vector" fill-rule="evenodd" clip-rule="evenodd" d="M0.833333 2.365C0.833333 1.95878 0.994705 1.56919 1.28195 1.28195C1.56919 0.994705 1.95878 0.833333 2.365 0.833333H17.6333C17.8346 0.833005 18.034 0.872386 18.2201 0.949222C18.4062 1.02606 18.5753 1.13884 18.7177 1.28111C18.8601 1.42339 18.9731 1.59235 19.0501 1.77834C19.1272 1.96433 19.1668 2.16369 19.1667 2.365V17.6333C19.1669 17.8347 19.1274 18.0341 19.0505 18.2202C18.9735 18.4063 18.8607 18.5753 18.7183 18.7178C18.576 18.8602 18.407 18.9731 18.221 19.0502C18.0349 19.1272 17.8355 19.1668 17.6342 19.1667H2.365C2.16379 19.1667 1.96455 19.127 1.77866 19.05C1.59278 18.973 1.42389 18.8601 1.28165 18.7178C1.13941 18.5754 1.02661 18.4065 0.949685 18.2206C0.872761 18.0346 0.833224 17.8354 0.833333 17.6342V2.365ZM8.09 7.82333H10.5725V9.07C10.9308 8.35333 11.8475 7.70833 13.225 7.70833C15.8658 7.70833 16.4917 9.13583 16.4917 11.755V16.6067H13.8192V12.3517C13.8192 10.86 13.4608 10.0183 12.5508 10.0183C11.2883 10.0183 10.7633 10.9258 10.7633 12.3517V16.6067H8.09V7.82333ZM3.50667 16.4925H6.18V7.70833H3.50667V16.4917V16.4925ZM6.5625 4.84333C6.56754 5.07223 6.52681 5.29982 6.4427 5.51276C6.35859 5.7257 6.23279 5.9197 6.07269 6.08336C5.91259 6.24702 5.72142 6.37706 5.51038 6.46584C5.29934 6.55462 5.0727 6.60035 4.84375 6.60035C4.6148 6.60035 4.38816 6.55462 4.17712 6.46584C3.96608 6.37706 3.77491 6.24702 3.61481 6.08336C3.45471 5.9197 3.32891 5.7257 3.2448 5.51276C3.16069 5.29982 3.11996 5.07223 3.125 4.84333C3.13489 4.39405 3.32032 3.96649 3.64157 3.65224C3.96282 3.33798 4.39435 3.16201 4.84375 3.16201C5.29315 3.16201 5.72468 3.33798 6.04593 3.65224C6.36718 3.96649 6.55261 4.39405 6.5625 4.84333V4.84333Z" fill="var(--fill-0, black)"/>
</g>
<defs>
<clipPath id="clip0_0_291">
<rect width="20" height="20" fill="white"/>
</clipPath>
</defs>
</svg>
