<svg preserveAspectRatio="none" width="100%" height="100%" overflow="visible" style="display: block;" viewBox="0 0 28 28" fill="none" xmlns="http://www.w3.org/2000/svg">
<g id="mdi:account-alert-outline">
<path id="Vector" d="M23.3333 14V8.16667H25.6667V15.1667H23.3333M23.3333 19.8333H25.6667V17.5H23.3333M11.6667 15.1667C14.7817 15.1667 21 16.73 21 19.8333V23.3333H2.33333V19.8333C2.33333 16.73 8.55167 15.1667 11.6667 15.1667ZM11.6667 4.66667C12.9043 4.66667 14.0913 5.15833 14.9665 6.0335C15.8417 6.90867 16.3333 8.09566 16.3333 9.33333C16.3333 10.571 15.8417 11.758 14.9665 12.6332C14.0913 13.5083 12.9043 14 11.6667 14C10.429 14 9.242 13.5083 8.36684 12.6332C7.49167 11.758 7 10.571 7 9.33333C7 8.09566 7.49167 6.90867 8.36684 6.0335C9.242 5.15833 10.429 4.66667 11.6667 4.66667M11.6667 17.3833C8.20167 17.3833 4.55 19.0867 4.55 19.8333V21.1167H18.7833V19.8333C18.7833 19.0867 15.1317 17.3833 11.6667 17.3833M11.6667 6.88333C11.0169 6.88333 10.3937 7.14146 9.93426 7.60092C9.47479 8.06039 9.21667 8.68355 9.21667 9.33333C9.21667 9.98311 9.47479 10.6063 9.93426 11.0657C10.3937 11.5252 11.0169 11.7833 11.6667 11.7833C12.3164 11.7833 12.9396 11.5252 13.3991 11.0657C13.8585 10.6063 14.1167 9.98311 14.1167 9.33333C14.1167 8.68355 13.8585 8.06039 13.3991 7.60092C12.9396 7.14146 12.3164 6.88333 11.6667 6.88333V6.88333Z" fill="var(--fill-0, black)"/>
</g>
</svg>
