<svg preserveAspectRatio="none" width="100%" height="100%" overflow="visible" style="display: block;" viewBox="0 0 60 60" fill="none" xmlns="http://www.w3.org/2000/svg">
<g id="customer-support" clip-path="url(#clip0_0_56)">
<path id="Vector" d="M54.6936 23.9628C54.2992 10.6824 43.3742 -2.27094e-05 29.9999 -2.27094e-05C16.6257 -2.27094e-05 5.70065 10.6824 5.30618 23.9628L3.52935 25.7396V37.7897L5.29406 39.5544V47.7647C5.29406 52.5652 9.19947 56.4706 13.9999 56.4706H16.1858C16.9143 58.5246 18.8758 60 21.1764 60H24.7058C27.0079 60 28.9705 58.5224 29.6978 56.4663C29.7986 56.4681 29.8997 56.4706 29.9999 56.4706C38.5221 56.4706 45.6527 50.3981 47.2922 42.3529H51.9074L56.4705 37.7897V25.7396L54.6936 23.9628ZM29.9999 3.52939C40.4742 3.52939 49.1954 11.174 50.8806 21.1764H47.2922C45.6527 13.1313 38.5221 7.0588 29.9999 7.0588C21.4778 7.0588 14.3472 13.1313 12.7077 21.1764H9.11923C10.8045 11.174 19.5257 3.52939 29.9999 3.52939V3.52939ZM43.6709 21.1764C37.9663 21.1594 33.9369 21.5068 30.6148 16.6506L29.0016 14.2926L27.6152 16.7907C25.5952 20.4306 22.8749 21.1764 19.4117 21.1764H16.329C17.9002 15.0943 23.4337 10.5882 29.9999 10.5882C36.5662 10.5882 42.0997 15.0943 43.6709 21.1764V21.1764ZM12.3529 38.8235H9.55441L7.05876 36.3279V27.2015L9.55441 24.7059H12.3529V38.8235ZM8.82347 47.7647V42.3529H12.7043C13.3686 45.6441 14.9582 48.6652 17.313 51.0916C16.8194 51.619 16.4322 52.2467 16.1858 52.9412H13.9999C11.1456 52.9412 8.82347 50.619 8.82347 47.7647V47.7647ZM24.7058 56.4706H21.1764C20.2032 56.4706 19.4117 55.679 19.4117 54.7059C19.4117 53.7328 20.2032 52.9412 21.1764 52.9412H24.7058C25.6789 52.9412 26.4705 53.7328 26.4705 54.7059C26.4705 55.679 25.6789 56.4706 24.7058 56.4706ZM44.1176 38.8235C44.1176 46.608 37.7844 52.9412 29.9999 52.9412C29.8988 52.9412 29.7968 52.9392 29.6949 52.9368C28.9652 50.885 27.0048 49.4117 24.7058 49.4117C21.0823 49.4197 21.1401 49.3936 20.6884 49.4352C17.6246 46.7497 15.8823 42.9248 15.8823 38.8235V24.7059H19.4117C22.5349 24.7059 26.3384 24.1909 29.2826 20.6076C33.1674 24.6786 37.9146 24.7059 42.1762 24.7059H44.1176V38.8235ZM52.9411 36.3279L50.4455 38.8235H47.647V24.7059H50.4455L52.9411 27.2015V36.3279Z" fill="var(--fill-0, #242424)"/>
</g>
<defs>
<clipPath id="clip0_0_56">
<rect width="60" height="60" fill="white"/>
</clipPath>
</defs>
</svg>
