<svg preserveAspectRatio="none" width="100%" height="100%" overflow="visible" style="display: block;" viewBox="0 0 60 60" fill="none" xmlns="http://www.w3.org/2000/svg">
<g id="shipping" clip-path="url(#clip0_0_64)">
<path id="Vector" d="M55.3479 31.102V3.77971C55.3479 2.80497 54.5577 2.01472 53.5829 2.01472H6.29507C5.32033 2.01472 4.53008 2.80497 4.53008 3.77971V33.2801C3.67865 33.4041 2.84628 33.7346 2.10993 34.2813C-0.211384 35.9274 -0.760414 39.611 1.18402 41.8828L9.13388 51.5205C14.0549 57.2798 19.2825 57.9855 27.0538 57.9855C33.7228 57.9855 36.7043 58.0149 42.5164 56.6906L48.1759 55.3369C49.0936 56.6184 50.5504 57.4486 52.1882 57.4486H54.9762C57.7463 57.4486 59.9999 55.0744 59.9999 52.1562V36.3785C60.0001 33.592 57.9449 31.3032 55.3479 31.102ZM47.4146 34.7327L45.063 33.5383C41.1963 31.5865 36.7258 31.5143 32.7982 33.3403C31.7266 33.7618 29.3894 35.1759 28.1771 35.1286H20.0167C17.3099 35.1286 15.1077 37.3308 15.1077 40.0377V41.3248C15.0925 41.3088 15.0766 41.2936 15.0617 41.2774L9.23425 34.952C8.88161 34.5693 8.48543 34.249 8.06018 33.992V16.4811H22.504V22.951C22.504 23.9258 23.2943 24.716 24.269 24.716H35.4062C36.381 24.716 37.1712 23.9258 37.1712 22.951V16.4811H51.818V31.1019C49.7558 31.2612 48.0363 32.7365 47.4146 34.7327V34.7327ZM26.0339 16.4811H33.6411V21.186H26.0339V16.4811ZM51.8179 12.9511H37.1712V5.5447H51.818V12.9511H51.8179ZM33.6412 5.5447V12.9512H26.034V5.5447H33.6412ZM22.5039 5.5447V12.9512H8.06006V5.5447H22.5039ZM41.6972 53.2568C36.3281 54.4866 33.0946 54.4368 27.1171 54.4368C19.8218 54.4368 16.2969 54.3189 11.8571 49.2741L3.90728 39.6364C2.52447 37.8358 5.02911 35.7101 6.63807 37.3436L12.4655 43.6691C14.0056 45.2942 15.9437 46.1885 18.3324 46.2411H34.4889C35.4636 46.2411 36.2539 45.4509 36.2539 44.4761C36.2539 43.5014 35.4636 42.7112 34.4889 42.7112H18.6375V40.0374C18.6375 39.2771 19.2561 38.6584 20.0166 38.6584H28.1769C30.0154 38.7901 32.6688 37.255 34.2863 36.5411C37.2279 35.1734 40.5762 35.2275 43.4683 36.6872L47.1647 38.5647V51.949L41.6972 53.2568ZM56.4701 52.1561C56.4701 53.1279 55.8 53.9185 54.9763 53.9185H52.1883C51.3647 53.9185 50.6947 53.1279 50.6947 52.1561V36.3785C50.6947 35.4067 51.3648 34.616 52.1883 34.616H54.9763C55.8 34.616 56.4701 35.4066 56.4701 36.3785V52.1561Z" fill="var(--fill-0, #242424)"/>
</g>
<defs>
<clipPath id="clip0_0_64">
<rect width="60" height="60" fill="white"/>
</clipPath>
</defs>
</svg>
